<svg width="17" height="16" viewBox="0 0 17 16" fill="none" xmlns="http://www.w3.org/2000/svg">
<path d="M16.0938 7.59375L15.25 6.75C15.0938 6.59375 14.875 6.59375 14.7188 6.75C14.5625 6.90625 14.5625 7.125 14.7188 7.28125L15.5625 8.125L15.0938 8.59375L14.25 7.75C14.0938 7.59375 13.875 7.59375 13.7188 7.75C13.5625 7.90625 13.5625 8.125 13.7188 8.28125L14.5312 9.09375L14.0625 9.5625L13.25 8.75C13.0938 8.59375 12.875 8.59375 12.7188 8.75C12.5625 8.90625 12.5625 9.125 12.7188 9.28125L13.5312 10.0938L13.0312 10.5312L12.25 9.75C12.0938 9.59375 11.875 9.59375 11.7188 9.75C11.5625 9.90625 11.5625 10.125 11.7188 10.2812L12.5 11.0625L11.6875 11.8438C11.6875 11.7812 11.6562 11.7188 11.625 11.6875C11.1562 11.1562 10.4688 10.5938 9.5625 10.2812L14.25 5.71875C14.7812 5.21875 15.5938 5.21875 16.0938 5.71875C16.625 6.25 16.625 7.09375 16.0938 7.59375ZM6.5 6.5C6.5 7.0625 6.0625 7.5 5.5 7.5C4.9375 7.5 4.5 7.0625 4.5 6.5C4.5 5.96875 4.9375 5.5 5.5 5.5C6.0625 5.5 6.5 5.96875 6.5 6.5ZM11.5 6.5C11.5 7.0625 11.0625 7.5 10.5 7.5C9.9375 7.5 9.5 7.0625 9.5 6.5C9.5 5.96875 9.9375 5.5 10.5 5.5C11.0625 5.5 11.5 5.96875 11.5 6.5Z" fill="#166CC9"/>
<path d="M16 8C16 12.4375 12.4062 16 8 16C3.5625 16 0 12.4375 0 8C0 3.59375 3.5625 0 8 0C11.5 0 14.4688 2.25 15.5312 5.40625C15.0938 5.28125 14.625 5.375 14.25 5.71875L9.5625 10.2812C9.09375 10.125 8.5625 10 8 10C6.25 10 5.0625 10.875 4.34375 11.6875C4.1875 11.9062 4.1875 12.2188 4.40625 12.4062C4.625 12.5625 4.9375 12.5625 5.125 12.3438C5.6875 11.6875 6.625 11 8 11C9.34375 11 10.2812 11.6875 10.8438 12.3438C11.0312 12.5625 11.3438 12.5625 11.5625 12.4062C11.7188 12.25 11.7812 12.0312 11.6875 11.8438L15.9688 7.71875C15.9688 7.8125 16 7.90625 16 8ZM5.5 5.5C4.9375 5.5 4.5 5.96875 4.5 6.5C4.5 7.0625 4.9375 7.5 5.5 7.5C6.0625 7.5 6.5 7.0625 6.5 6.5C6.5 5.96875 6.0625 5.5 5.5 5.5ZM10.5 7.5C11.0625 7.5 11.5 7.0625 11.5 6.5C11.5 5.96875 11.0625 5.5 10.5 5.5C9.9375 5.5 9.5 5.96875 9.5 6.5C9.5 7.0625 9.9375 7.5 10.5 7.5Z" fill="#D0E2F4"/>
</svg>
