<svg width="16" height="16" viewBox="0 0 16 16" fill="none" xmlns="http://www.w3.org/2000/svg">
<path d="M4 1C4 0.46875 4.4375 0 5 0C5.53125 0 6 0.46875 6 1V2H10V1C10 0.46875 10.4375 0 11 0C11.5312 0 12 0.46875 12 1V2H13.5C14.3125 2 15 2.6875 15 3.5V6H1V3.5C1 2.6875 1.65625 2 2.5 2H4V1ZM8 7.75C8.40625 7.75 8.75 8.09375 8.75 8.5V10.25H10.5C10.9062 10.25 11.25 10.5938 11.25 11C11.25 11.4375 10.9062 11.75 10.5 11.75H8.75V13.5C8.75 13.9375 8.40625 14.25 8 14.25C7.5625 14.25 7.25 13.9375 7.25 13.5V11.75H5.5C5.0625 11.75 4.75 11.4375 4.75 11C4.75 10.5938 5.0625 10.25 5.5 10.25H7.25V8.5C7.25 8.09375 7.5625 7.75 8 7.75Z" fill="#166CC9"/>
<path d="M1 6H15V14.5C15 15.3438 14.3125 16 13.5 16H2.5C1.65625 16 1 15.3438 1 14.5V6ZM7.25 8.5V10.25H5.5C5.0625 10.25 4.75 10.5938 4.75 11C4.75 11.4375 5.0625 11.75 5.5 11.75H7.25V13.5C7.25 13.9375 7.5625 14.25 8 14.25C8.40625 14.25 8.75 13.9375 8.75 13.5V11.75H10.5C10.9062 11.75 11.25 11.4375 11.25 11C11.25 10.5938 10.9062 10.25 10.5 10.25H8.75V8.5C8.75 8.09375 8.40625 7.75 8 7.75C7.5625 7.75 7.25 8.09375 7.25 8.5Z" fill="#D0E2F4"/>
</svg>
