<svg width="16" height="16" viewBox="0 0 16 16" fill="none" xmlns="http://www.w3.org/2000/svg">
<path d="M12.7998 2C13.2248 2 13.5998 2.375 13.5998 2.8C13.5998 3.25 13.2248 3.6 12.7998 3.6V7.375L15.7248 12.175C15.8998 12.45 15.9998 12.75 15.9998 13.075C15.9998 14.025 15.1998 14.8 14.2498 14.8H6.5248C5.5748 14.8 4.7998 14.025 4.7998 13.075C4.7998 12.75 4.8748 12.45 5.0498 12.175L7.9998 7.375V3.6C7.5498 3.6 7.1998 3.25 7.1998 2.8C7.1998 2.375 7.5498 2 7.9998 2H12.7998ZM9.4748 8.025L8.2498 10H12.5248L11.2998 8.025C11.2248 7.9 11.1998 7.75 11.1998 7.6V3.6H9.5998V7.6C9.5998 7.75 9.5498 7.9 9.4748 8.025Z" fill="#166CC9"/>
<path d="M5.6 9.75L4.375 11.75C4.125 12.15 4 12.6 4 13.075C3.725 13.175 3.475 13.2 3.2 13.2C1.85 13.2 0.8 12.125 0.8 10.8V3.6C0.35 3.6 0 3.25 0 2.8C0 2.375 0.35 2 0.8 2H5.6C6.025 2 6.4 2.375 6.4 2.8C6.4 3.25 6.025 3.6 5.6 3.6V9.75ZM4 3.6H2.4V6H4V3.6Z" fill="#D0E2F4"/>
</svg>
