<svg width="16" height="16" viewBox="0 0 16 16" fill="none" xmlns="http://www.w3.org/2000/svg">
<path d="M10.0625 0.625C10.2188 0.25 10.5938 0 11 0H15C15.5312 0 16 0.46875 16 1V5C16 5.40625 15.75 5.78125 15.375 5.9375C15 6.09375 14.5625 6 14.2812 5.71875L13 4.4375L7.6875 9.71875C7.3125 10.125 6.65625 10.125 6.28125 9.71875C5.875 9.34375 5.875 8.6875 6.28125 8.3125L11.5625 3L10.2812 1.71875C10 1.4375 9.90625 1 10.0625 0.625Z" fill="#166CC9"/>
<path d="M0 3.5C0 2.125 1.09375 1 2.5 1H6C6.53125 1 7 1.46875 7 2C7 2.5625 6.53125 3 6 3H2.5C2.21875 3 2 3.25 2 3.5V13.5C2 13.7812 2.21875 14 2.5 14H12.5C12.75 14 13 13.7812 13 13.5V10C13 9.46875 13.4375 9 14 9C14.5312 9 15 9.46875 15 10V13.5C15 14.9062 13.875 16 12.5 16H2.5C1.09375 16 0 14.9062 0 13.5V3.5Z" fill="#D0E2F4"/>
</svg>
