<svg width="16" height="17" viewBox="0 0 16 17" fill="none" xmlns="http://www.w3.org/2000/svg">
<path d="M14.75 14.0312C15.0625 14.3125 15.0625 14.7812 14.75 15.0938L14.0312 15.8125C13.75 16.0938 13.25 16.0938 12.9688 15.8125L9.96875 12.7812L11.7188 11.0312L14.75 14.0312ZM9.90625 2.96875C10.2812 4.78125 9.34375 6.4375 7.875 7.125L10 9.25L8.21875 11.0312L4.71875 7.53125H3.40625V9.28125C3.40625 9.6875 3.09375 10.0312 2.6875 10.0312H1.71875C1.3125 10.0312 1 9.6875 1 9.28125V1.03125C1 0.46875 1.4375 0 1.96875 0H6.125C7.90625 0 9.53125 1.21875 9.90625 2.96875ZM6.21875 5.03125C6.9375 5.03125 7.40625 4.46875 7.40625 3.78125C7.40625 3.09375 6.875 2.53125 6.1875 2.53125H3.46875V5.03125H6.21875Z" fill="#166CC9"/>
<path d="M14.75 8.03125L6.96875 15.8125C6.6875 16.0938 6.21875 16.0938 5.9375 15.8125L5.21875 15.0938C4.9375 14.7812 4.9375 14.3125 5.21875 14.0312L13 6.25C13.2812 5.96875 13.75 5.96875 14.0312 6.25L14.75 6.96875C15.0312 7.25 15.0312 7.71875 14.75 8.03125Z" fill="#D0E2F4"/>
</svg>
