<svg width="16" height="16" viewBox="0 0 16 16" fill="none" xmlns="http://www.w3.org/2000/svg">
<path d="M9 1.99972C9 1.62472 9.21875 1.24972 9.59375 1.09347C9.9375 0.937221 10.375 0.999721 10.6562 1.28097L15.6562 5.78097C15.875 5.96847 16 6.21847 16 6.49972C16 6.81222 15.875 7.06222 15.6562 7.24972L10.6562 11.7497C10.375 12.031 9.9375 12.0935 9.59375 11.9372C9.21875 11.7497 9 11.406 9 10.9997V1.99972Z" fill="#166CC9"/>
<path d="M9 9H6C4.34375 9 3 10.3438 3 12C3 12.9688 3.375 13.5 3.6875 13.7812C3.84375 13.9375 4 14.1562 4 14.4062C4 14.75 3.71875 15 3.375 15C3.28125 15 3.1875 15 3.125 14.9688C2.53125 14.625 0 13.0625 0 9.5C0 6.46875 2.4375 4 5.5 4H9V9Z" fill="#D0E2F4"/>
</svg>
