<svg width="16" height="16" viewBox="0 0 16 16" fill="none" xmlns="http://www.w3.org/2000/svg">
<path d="M4.5 7.5H3.75C3.3125 7.5 3 7.1875 3 6.75C3 6.34375 3.3125 6 3.75 6H4.78125C5.625 3.125 8.3125 1 11.5 1H12.25C12.6562 1 13 1.34375 13 1.75C13 2.1875 12.6562 2.5 12.25 2.5H11.5C9.15625 2.5 7.15625 3.96875 6.375 6H11.25C11.6562 6 12 6.34375 12 6.75C12 7.1875 11.6562 7.5 11.25 7.5H6C6 7.6875 6 7.84375 6 8C6 8.1875 6 8.34375 6 8.5H11.25C11.6562 8.5 12 8.84375 12 9.25C12 9.6875 11.6562 10 11.25 10H6.375C7.15625 12.0625 9.15625 13.5 11.5 13.5H12.25C12.6562 13.5 13 13.8438 13 14.25C13 14.6875 12.6562 15 12.25 15H11.5C8.3125 15 5.625 12.9062 4.78125 10H3.75C3.3125 10 3 9.6875 3 9.25C3 8.84375 3.3125 8.5 3.75 8.5H4.5C4.5 8.34375 4.5 8.1875 4.5 8C4.5 7.84375 4.5 7.6875 4.5 7.5Z" fill="black"/>
</svg>
