<svg width="16" height="16" viewBox="0 0 16 16" fill="none" xmlns="http://www.w3.org/2000/svg">
<path d="M4 1.5C3.71875 1.5 3.5 1.75 3.5 2V14C3.5 14.2812 3.71875 14.5 4 14.5H6.5V12.5C6.5 11.6875 7.15625 11 8 11C8.8125 11 9.5 11.6875 9.5 12.5V14.5H12C12.25 14.5 12.5 14.2812 12.5 14V2C12.5 1.75 12.25 1.5 12 1.5H4ZM2 2C2 0.90625 2.875 0 4 0H12C13.0938 0 14 0.90625 14 2V14C14 15.125 13.0938 16 12 16H4C2.875 16 2 15.125 2 14V2ZM4.75 3.25C4.75 3 4.96875 2.75 5.25 2.75H6.75C7 2.75 7.25 3 7.25 3.25V4.75C7.25 5.03125 7 5.25 6.75 5.25H5.25C4.96875 5.25 4.75 5.03125 4.75 4.75V3.25ZM9.25 2.75H10.75C11 2.75 11.25 3 11.25 3.25V4.75C11.25 5.03125 11 5.25 10.75 5.25H9.25C8.96875 5.25 8.75 5.03125 8.75 4.75V3.25C8.75 3 8.96875 2.75 9.25 2.75ZM4.75 7.25C4.75 7 4.96875 6.75 5.25 6.75H6.75C7 6.75 7.25 7 7.25 7.25V8.75C7.25 9.03125 7 9.25 6.75 9.25H5.25C4.96875 9.25 4.75 9.03125 4.75 8.75V7.25ZM9.25 6.75H10.75C11 6.75 11.25 7 11.25 7.25V8.75C11.25 9.03125 11 9.25 10.75 9.25H9.25C8.96875 9.25 8.75 9.03125 8.75 8.75V7.25C8.75 7 8.96875 6.75 9.25 6.75Z" fill="black"/>
</svg>
