<svg width="16" height="16" viewBox="0 0 16 16" fill="none" xmlns="http://www.w3.org/2000/svg">
<path d="M1.21875 8.54691C1.0625 8.39066 1 8.20316 1 7.98441C1 7.79691 1.0625 7.60941 1.21875 7.45316L6.71875 2.20316C7.03125 1.92191 7.5 1.92191 7.78125 2.23441C8.0625 2.51566 8.0625 3.01566 7.75 3.29691L3.59375 7.23441H14.25C14.6562 7.23441 15 7.57816 15 7.98441C15 8.42191 14.6562 8.73441 14.25 8.73441H3.59375L7.75 12.7032C8.0625 12.9844 8.0625 13.4532 7.78125 13.7657C7.5 14.0782 7.03125 14.0782 6.71875 13.7969L1.21875 8.54691Z" fill="black"/>
</svg>
