<svg width="16" height="16" viewBox="0 0 16 16" fill="none" xmlns="http://www.w3.org/2000/svg">
<path d="M14.75 8.54685L9.25 13.7968C8.9375 14.0781 8.46875 14.0781 8.1875 13.7656C7.90625 13.4531 7.90625 12.9843 8.21875 12.7031L12.375 8.73435H1.75C1.3125 8.73435 1 8.42185 1 7.98435C1 7.5781 1.3125 7.23435 1.75 7.23435H12.375L8.21875 3.29685C7.90625 3.0156 7.90625 2.5156 8.1875 2.23435C8.46875 1.92185 8.96875 1.92185 9.25 2.2031L14.75 7.4531C14.9062 7.60935 15 7.79685 15 7.98435C15 8.2031 14.9062 8.3906 14.75 8.54685Z" fill="black"/>
</svg>
