<svg width="16" height="16" viewBox="0 0 16 16" fill="none" xmlns="http://www.w3.org/2000/svg">
<path d="M8.01562 1C8.54687 1 9.01562 1.46875 9.01562 2V6.25L12.4844 4.15625C12.9531 3.875 13.5781 4.03125 13.8594 4.5C14.1406 4.96875 13.9844 5.59375 13.5156 5.875L9.95312 8L13.5156 10.1562C13.9844 10.4375 14.1406 11.0625 13.8594 11.5312C13.5781 12 12.9531 12.1562 12.4844 11.875L9.01562 9.78125V14C9.01562 14.5625 8.54687 15 8.01562 15C7.45312 15 7.01562 14.5625 7.01562 14V9.78125L3.51562 11.875C3.04687 12.1562 2.42187 12 2.14062 11.5312C1.85937 11.0625 2.01562 10.4375 2.48437 10.1562L6.04687 8L2.48437 5.875C2.01562 5.59375 1.85937 4.96875 2.14062 4.5C2.42187 4.03125 3.04687 3.875 3.51562 4.15625L7.01562 6.25V2C7.01562 1.46875 7.45312 1 8.01562 1Z" fill="black"/>
</svg>
