<svg width="16" height="16" viewBox="0 0 16 16" fill="none" xmlns="http://www.w3.org/2000/svg">
<path d="M8.01561 0C8.54644 0 9.01482 0.46875 9.01482 1V1.625C11.2942 2.0625 13.0116 4.09375 13.0116 6.5V7.09375C13.0116 8.5625 13.5425 10 14.5104 11.0938L14.729 11.3438C15.01 11.6562 15.0725 12.0625 14.9164 12.4375C14.7602 12.7812 14.3855 13 14.0108 13H2.02039C1.61447 13 1.23976 12.7812 1.08364 12.4375C0.927513 12.0625 0.989963 11.6562 1.27099 11.3438L1.48957 11.0938C2.45754 10 3.0196 8.5625 3.0196 7.09375V6.5C3.0196 4.09375 4.73698 2.0625 7.01641 1.625V1C7.01641 0.46875 7.45356 0 8.01561 0ZM9.42074 15.4375C9.04604 15.8125 8.54644 16 8.01561 16C7.48479 16 6.95396 15.8125 6.57926 15.4375C6.20456 15.0625 6.01721 14.5312 6.01721 14H8.01561H10.014C10.014 14.5312 9.79544 15.0625 9.42074 15.4375Z" fill="black"/>
</svg>
