<svg width="16" height="16" viewBox="0 0 16 16" fill="none" xmlns="http://www.w3.org/2000/svg">
<path d="M0.966191 1.74495L4.66425 4.61845C5.23895 3.7439 6.13848 3.09425 7.21291 2.89435V2.39461C7.21291 1.96984 7.56273 1.59503 8.01249 1.59503C8.43727 1.59503 8.81207 1.96984 8.81207 2.39461V2.89435C10.6361 3.24417 12.0104 4.86831 12.0104 6.7923V7.66685C12.0104 8.39147 12.2853 9.0911 12.81 9.59084L12.835 9.64081C13.3347 10.1156 13.6096 10.7902 13.6096 11.4898C13.6096 11.5148 13.5846 11.5648 13.5846 11.6148L15.7584 13.3389C16.0333 13.5388 16.0833 13.9136 15.8584 14.1634C15.6585 14.4383 15.2837 14.4883 15.0338 14.2634L0.241571 2.66947C-0.0332847 2.46957 -0.0832584 2.09477 0.141624 1.8449C0.341519 1.57004 0.716322 1.52007 0.966191 1.74495ZM4.01459 7.66685V7.16711L10.1614 11.9896H2.91517C2.64031 11.9896 2.41543 11.7647 2.41543 11.4898C2.41543 10.7902 2.69029 10.1156 3.16504 9.64081L3.21501 9.59084C3.71475 9.0911 4.01459 8.39147 4.01459 7.66685ZM9.61165 12.7892C9.61165 13.2139 9.43675 13.6387 9.1369 13.9386C8.83706 14.2384 8.43727 14.3883 8.01249 14.3883C7.58772 14.3883 7.16294 14.2384 6.8631 13.9386C6.56325 13.6387 6.41333 13.2139 6.41333 12.7892H8.01249H9.61165Z" fill="black"/>
</svg>
