<svg width="16" height="16" viewBox="0 0 16 16" fill="none" xmlns="http://www.w3.org/2000/svg">
<path d="M3.55556 1C3.91667 1 4.22222 1.30556 4.22222 1.66667V2.77778H8.22222V1.66667C8.22222 1.30556 8.5 1 8.88889 1C9.25 1 9.55556 1.30556 9.55556 1.66667V2.77778H10.6667C11.6389 2.77778 12.4444 3.58333 12.4444 4.55556V5V6.33333H12H11.1111H9.77778H1.33333V13.4444C1.33333 13.6944 1.52778 13.8889 1.77778 13.8889H7.88889C8.22222 14.4167 8.66667 14.8889 9.16667 15.2222H1.77778C0.777778 15.2222 0 14.4444 0 13.4444V6.33333V5V4.55556C0 3.58333 0.777778 2.77778 1.77778 2.77778H2.88889V1.66667C2.88889 1.30556 3.16667 1 3.55556 1ZM8 11.2222C8 9.80556 8.75 8.5 10 7.77778C11.2222 7.05556 12.75 7.05556 14 7.77778C15.2222 8.5 16 9.80556 16 11.2222C16 12.6667 15.2222 13.9722 14 14.6944C12.75 15.4167 11.2222 15.4167 10 14.6944C8.75 13.9722 8 12.6667 8 11.2222ZM14.1389 13.4722C13.9722 12.9444 13.4722 12.5556 12.8889 12.5556H11.0833C10.5 12.5556 10 12.9444 9.83333 13.4722C10.3889 14.0278 11.1389 14.3333 12 14.3333C12.8333 14.3333 13.5833 14.0278 14.1389 13.4722ZM13.3333 10.3333C13.3333 9.86111 13.0556 9.44444 12.6667 9.19444C12.25 8.94444 11.7222 8.94444 11.3333 9.19444C10.9167 9.44444 10.6667 9.86111 10.6667 10.3333C10.6667 10.8333 10.9167 11.25 11.3333 11.5C11.7222 11.75 12.25 11.75 12.6667 11.5C13.0556 11.25 13.3333 10.8333 13.3333 10.3333Z" fill="black"/>
</svg>
