<svg width="16" height="16" viewBox="0 0 16 16" fill="none" xmlns="http://www.w3.org/2000/svg">
<path d="M5 0C5.40625 0 5.75 0.34375 5.75 0.75V2H10.25V0.75C10.25 0.34375 10.5625 0 11 0C11.4062 0 11.75 0.34375 11.75 0.75V2H13C14.0938 2 15 2.90625 15 4V4.5V6V14C15 15.125 14.0938 16 13 16H3C1.875 16 1 15.125 1 14V6V4.5V4C1 2.90625 1.875 2 3 2H4.25V0.75C4.25 0.34375 4.5625 0 5 0ZM13.5 6H2.5V14C2.5 14.2812 2.71875 14.5 3 14.5H13C13.25 14.5 13.5 14.2812 13.5 14V6ZM10.5312 8.78125L9.0625 10.25L10.5312 11.7188C10.8125 12.0312 10.8125 12.5 10.5312 12.7812C10.2188 13.0938 9.75 13.0938 9.46875 12.7812L8 11.3125L6.53125 12.7812C6.21875 13.0938 5.75 13.0938 5.46875 12.7812C5.15625 12.5 5.15625 12.0312 5.46875 11.7188L6.9375 10.25L5.46875 8.78125C5.15625 8.5 5.15625 8.03125 5.46875 7.75C5.75 7.4375 6.21875 7.4375 6.53125 7.75L8 9.21875L9.46875 7.75C9.75 7.4375 10.2188 7.4375 10.5312 7.75C10.8125 8.03125 10.8125 8.5 10.5312 8.78125Z" fill="black"/>
</svg>
