<svg width="16" height="16" viewBox="0 0 16 16" fill="none" xmlns="http://www.w3.org/2000/svg">
<g clip-path="url(#clip0_4_1255)">
<path d="M6.00574 0.75C6.00574 0.34375 6.31824 0 6.75574 0H8.25574C8.66199 0 9.00574 0.34375 9.00574 0.75V2.5H10.7557C11.162 2.5 11.5057 2.84375 11.5057 3.25V4.75C11.5057 5.1875 11.162 5.5 10.7557 5.5H9.00574V7.25C9.00574 7.6875 8.66199 8 8.25574 8H6.75574C6.31824 8 6.00574 7.6875 6.00574 7.25V5.5H4.25574C3.81824 5.5 3.50574 5.1875 3.50574 4.75V3.25C3.50574 2.84375 3.81824 2.5 4.25574 2.5H6.00574V0.75ZM16.4745 12.2812L12.537 15.1875C11.787 15.7188 10.912 16 10.0057 16H5.00574H0.0057373C-0.556763 16 -0.994263 15.5625 -0.994263 15V13C-0.994263 12.4688 -0.556763 12 0.0057373 12H1.13074L2.53699 10.875C3.25574 10.3125 4.13074 10 5.03699 10H7.50574H8.00574H10.0057C10.537 10 11.0057 10.4688 11.0057 11C11.0057 11.5625 10.537 12 10.0057 12H8.00574H7.50574C7.22449 12 7.00574 12.25 7.00574 12.5C7.00574 12.7812 7.22449 13 7.50574 13H11.2557L15.0057 10.25C15.5682 9.84375 16.3495 9.96875 16.7557 10.5312C17.162 11.0938 17.037 11.875 16.4745 12.2812ZM5.00574 12C5.03699 12 5.03699 12 5.03699 12H5.00574Z" fill="black"/>
</g>
<defs>
<clipPath id="clip0_4_1255">
<rect width="16" height="16" fill="white"/>
</clipPath>
</defs>
</svg>
