<svg width="16" height="16" viewBox="0 0 16 16" fill="none" xmlns="http://www.w3.org/2000/svg">
<g clip-path="url(#clip0_4_1776)">
<path d="M16 8C16 12.4375 12.4062 16 8 16C3.5625 16 0 12.4375 0 8C0 3.59375 3.5625 0 8 0C11.5 0 14.4688 2.25 15.5625 5.40625C15.125 5.28125 14.625 5.375 14.2812 5.71875L9.5625 10.2812C9.09375 10.125 8.5625 10 8 10C6.25 10 5.0625 10.875 4.34375 11.6875C4.1875 11.9062 4.1875 12.2188 4.40625 12.4062C4.625 12.5625 4.9375 12.5625 5.125 12.3438C5.6875 11.6875 6.625 11 8 11C9.34375 11 10.3125 11.6875 10.8438 12.3438C11.0312 12.5625 11.3438 12.5625 11.5625 12.4062C11.7188 12.25 11.7812 12.0312 11.7188 11.8438L12 11.5625L11.2188 10.7812C11.0625 10.625 11.0625 10.4062 11.2188 10.25C11.375 10.0938 11.5938 10.0938 11.75 10.25L12.5312 11.0312L13.0312 10.5625L12.2188 9.78125C12.0625 9.625 12.0625 9.40625 12.2188 9.25C12.375 9.09375 12.5938 9.09375 12.75 9.25L13.5625 10.0625L14.0312 9.59375L13.2188 8.78125C13.0625 8.625 13.0625 8.40625 13.2188 8.25C13.375 8.09375 13.5938 8.09375 13.75 8.25L14.5625 9.0625L15.0625 8.59375L14.2188 7.78125C14.0625 7.625 14.0625 7.40625 14.2188 7.25C14.375 7.09375 14.5938 7.09375 14.75 7.25L15.5938 8.09375L15.9688 7.71875C16 7.8125 16 7.90625 16 8ZM6.5 6.5C6.5 5.96875 6.0625 5.5 5.5 5.5C4.9375 5.5 4.5 5.96875 4.5 6.5C4.5 7.0625 4.9375 7.5 5.5 7.5C6.0625 7.5 6.5 7.0625 6.5 6.5ZM10.5 7.5C11.0625 7.5 11.5 7.0625 11.5 6.5C11.5 5.96875 11.0625 5.5 10.5 5.5C9.9375 5.5 9.5 5.96875 9.5 6.5C9.5 7.0625 9.9375 7.5 10.5 7.5Z" fill="black"/>
</g>
<defs>
<clipPath id="clip0_4_1776">
<rect width="16" height="16" fill="white"/>
</clipPath>
</defs>
</svg>
