<svg width="16" height="16" viewBox="0 0 16 16" fill="none" xmlns="http://www.w3.org/2000/svg">
<path d="M1.5 1.75V12.75C1.5 13.1875 1.8125 13.5 2.25 13.5H15.25C15.6562 13.5 16 13.8438 16 14.25C16 14.6875 15.6562 15 15.25 15H2.25C1 15 0 14 0 12.75V1.75C0 1.34375 0.3125 1 0.75 1C1.15625 1 1.5 1.34375 1.5 1.75ZM14.7812 5.28125L10.5 9.53125C10.2188 9.84375 9.75 9.84375 9.46875 9.53125L7 7.0625L4.53125 9.53125C4.21875 9.84375 3.75 9.84375 3.46875 9.53125C3.15625 9.25 3.15625 8.78125 3.46875 8.5L6.46875 5.5C6.59375 5.34375 6.78125 5.28125 7 5.28125C7.1875 5.28125 7.375 5.34375 7.53125 5.5L10 7.96875L13.7188 4.25C14 3.9375 14.4688 3.9375 14.7812 4.25C15.0625 4.53125 15.0625 5 14.7812 5.28125Z" fill="black"/>
</svg>
