<svg width="16" height="16" viewBox="0 0 16 16" fill="none" xmlns="http://www.w3.org/2000/svg">
<g clip-path="url(#clip0_4_1420)">
<path d="M11.7031 2.70312L6.70312 7.70312C6.32812 8.10938 5.67188 8.10938 5.29688 7.70312L2.79688 5.20312C2.39062 4.82812 2.39062 4.17188 2.79688 3.79688C3.17188 3.39062 3.82812 3.39062 4.20312 3.79688L6.01562 5.57812L10.2969 1.29688C10.6719 0.890625 11.3281 0.890625 11.7031 1.29688C12.1094 1.67188 12.1094 2.32812 11.7031 2.70312ZM14.7031 6.70312L6.70312 14.7031C6.32812 15.1094 5.67188 15.1094 5.29688 14.7031L1.29688 10.7031C0.890625 10.3281 0.890625 9.67188 1.29688 9.29688C1.67188 8.89062 2.32812 8.89062 2.70312 9.29688L6.01562 12.5781L13.2969 5.29688C13.6719 4.89062 14.3281 4.89062 14.7031 5.29688C15.1094 5.67188 15.1094 6.32812 14.7031 6.70312Z" fill="black"/>
</g>
<defs>
<clipPath id="clip0_4_1420">
<rect width="16" height="16" fill="white"/>
</clipPath>
</defs>
</svg>
