<svg width="16" height="16" viewBox="0 0 16 16" fill="none" xmlns="http://www.w3.org/2000/svg">
<path d="M12.3867 2.53516C11.6055 1.78516 10.3867 1.78516 9.60547 2.53516L3.85547 8.28516C2.54297 9.59766 2.54297 11.7539 3.85547 13.0664C5.16797 14.3789 7.32422 14.3789 8.63672 13.0664L13.3867 8.31641C13.7305 7.97266 14.2617 7.97266 14.6055 8.31641C14.9492 8.66016 14.9492 9.19141 14.6055 9.53516L9.85547 14.2852C7.85547 16.2852 4.63672 16.2852 2.63672 14.2852C0.636719 12.2852 0.636719 9.06641 2.63672 7.06641L8.38672 1.31641C9.82422 -0.152344 12.168 -0.152344 13.6055 1.31641C15.0742 2.75391 15.0742 5.09766 13.6055 6.53516L8.10547 12.0352C7.23047 12.9414 5.76172 12.9414 4.88672 12.0352C3.98047 11.1602 3.98047 9.69141 4.88672 8.81641L9.38672 4.31641C9.73047 3.97266 10.2617 3.97266 10.6055 4.31641C10.9492 4.66016 10.9492 5.19141 10.6055 5.53516L6.10547 10.0352C5.91797 10.2539 5.91797 10.5977 6.10547 10.8164C6.32422 11.0039 6.66797 11.0039 6.88672 10.8164L12.3867 5.31641C13.1367 4.53516 13.1367 3.31641 12.3867 2.53516Z" fill="black"/>
</svg>
