<svg width="16" height="16" viewBox="0 0 16 16" fill="none" xmlns="http://www.w3.org/2000/svg">
<g clip-path="url(#clip0_4_2001)">
<path d="M13.2969 1.29688C13.6719 0.890625 14.3281 0.890625 14.7031 1.29688C15.1094 1.67188 15.1094 2.32812 14.7031 2.70312L9.42188 7.98438L14.7031 13.2969C15.1094 13.6719 15.1094 14.3281 14.7031 14.7031C14.3281 15.1094 13.6719 15.1094 13.2969 14.7031L8.01562 9.42188L2.70312 14.7031C2.32812 15.1094 1.67188 15.1094 1.29688 14.7031C0.890625 14.3281 0.890625 13.6719 1.29688 13.2969L6.57812 7.98438L1.29688 2.70312C0.890625 2.32812 0.890625 1.67188 1.29688 1.29688C1.67188 0.890625 2.32812 0.890625 2.70312 1.29688L8.01562 6.57812L13.2969 1.29688Z" fill="black"/>
</g>
<defs>
<clipPath id="clip0_4_2001">
<rect width="16" height="16" fill="white"/>
</clipPath>
</defs>
</svg>
