<svg width="16" height="16" viewBox="0 0 16 16" fill="none" xmlns="http://www.w3.org/2000/svg">
<g clip-path="url(#clip0_4_1165)">
<path d="M5.13495 0.771353L6.38495 3.77135C6.6037 4.27135 6.4787 4.8651 6.0412 5.20885L4.50995 6.4901C5.5412 8.6776 7.32245 10.4589 9.50995 11.4901L10.7912 9.95885C11.1349 9.52135 11.7287 9.39635 12.2287 9.6151L15.2287 10.8651C15.8224 11.0839 16.1037 11.7401 15.9474 12.3339L15.1974 15.0839C15.0412 15.6151 14.5724 15.9901 14.0099 15.9901C6.25995 15.9901 0.00994873 9.7401 0.00994873 1.9901C0.00994873 1.4276 0.384949 0.958853 0.916199 0.802603L3.6662 0.0526029C4.25995 -0.103647 4.9162 0.177603 5.13495 0.771353Z" fill="black"/>
</g>
<defs>
<clipPath id="clip0_4_1165">
<rect width="16" height="16" fill="white"/>
</clipPath>
</defs>
</svg>
