<svg width="16" height="16" viewBox="0 0 16 16" fill="none" xmlns="http://www.w3.org/2000/svg">
<g clip-path="url(#clip0_4_1375)">
<path d="M8.88889 1.77428V14.2187V15.1076H8H2.66667H0.888889C0.388889 15.1076 0 14.7187 0 14.2187C0 13.7465 0.388889 13.3298 0.888889 13.3298H1.77778V3.46872C1.77778 2.85761 2.19444 2.32983 2.77778 2.16317L7.77778 0.913167C8.02778 0.857612 8.30556 0.913167 8.52778 1.07983C8.75 1.2465 8.88889 1.52428 8.88889 1.77428ZM7.11111 7.9965C7.11111 7.52428 6.80556 7.10761 6.44444 7.10761C6.05556 7.10761 5.77778 7.52428 5.77778 7.9965C5.77778 8.4965 6.05556 8.88539 6.44444 8.88539C6.80556 8.88539 7.11111 8.4965 7.11111 7.9965ZM9.77778 4.44095V2.66317H12.4444C13.4167 2.66317 14.2222 3.46872 14.2222 4.44095V13.3298H15.1111C15.5833 13.3298 16 13.7465 16 14.2187C16 14.7187 15.5833 15.1076 15.1111 15.1076H13.3333C12.8333 15.1076 12.4444 14.7187 12.4444 14.2187V4.44095H9.77778Z" fill="black"/>
</g>
<defs>
<clipPath id="clip0_4_1375">
<rect width="16" height="16" fill="white"/>
</clipPath>
</defs>
</svg>
