<svg width="16" height="16" viewBox="0 0 16 16" fill="none" xmlns="http://www.w3.org/2000/svg">
<g clip-path="url(#clip0_4_2031)">
<path d="M11.3375 0.593994C12.1187 -0.187256 13.4 -0.187256 14.1812 0.593994L15.4 1.81274C16.1812 2.59399 16.1812 3.87524 15.4 4.65649L13.9 6.15649L9.83748 2.09399L11.3375 0.593994ZM9.11873 2.81274L13.1812 6.87524L5.89998 14.1565C5.58748 14.469 5.18123 14.719 4.74373 14.844L0.962476 15.969C0.712476 16.0315 0.431226 15.969 0.243726 15.7502C0.0249756 15.5627 -0.0375244 15.2815 0.0562256 15.0315L1.14998 11.2502C1.27498 10.8127 1.52498 10.4065 1.83748 10.094L9.11873 2.81274Z" fill="black"/>
</g>
<defs>
<clipPath id="clip0_4_2031">
<rect width="16" height="16" fill="white"/>
</clipPath>
</defs>
</svg>
