<svg width="16" height="16" viewBox="0 0 16 16" fill="none" xmlns="http://www.w3.org/2000/svg">
<path d="M1.25781 7.99219C1.25781 7.36719 1.57031 6.80469 2.13281 6.49219C2.66406 6.17969 3.32031 6.17969 3.88281 6.49219C4.41406 6.80469 4.75781 7.36719 4.75781 7.99219C4.75781 8.64844 4.41406 9.21094 3.88281 9.52344C3.32031 9.83594 2.66406 9.83594 2.13281 9.52344C1.57031 9.21094 1.25781 8.64844 1.25781 7.99219ZM6.25781 7.99219C6.25781 7.36719 6.57031 6.80469 7.13281 6.49219C7.66406 6.17969 8.32031 6.17969 8.88281 6.49219C9.41406 6.80469 9.75781 7.36719 9.75781 7.99219C9.75781 8.64844 9.41406 9.21094 8.88281 9.52344C8.32031 9.83594 7.66406 9.83594 7.13281 9.52344C6.57031 9.21094 6.25781 8.64844 6.25781 7.99219ZM13.0078 6.24219C13.6328 6.24219 14.1953 6.58594 14.5078 7.11719C14.8203 7.67969 14.8203 8.33594 14.5078 8.86719C14.1953 9.42969 13.6328 9.74219 13.0078 9.74219C12.3516 9.74219 11.7891 9.42969 11.4766 8.86719C11.1641 8.33594 11.1641 7.67969 11.4766 7.11719C11.7891 6.58594 12.3516 6.24219 13.0078 6.24219Z" fill="black"/>
</svg>
