<svg width="16" height="16" viewBox="0 0 16 16" fill="none" xmlns="http://www.w3.org/2000/svg">
<g clip-path="url(#clip0_4_1240)">
<path d="M0.15625 1.125L1.65625 2.125C2 2.375 2.09375 2.84375 1.875 3.1875C1.625 3.53125 1.15625 3.625 0.8125 3.375L-0.6875 2.375C-1.03125 2.15625 -1.125 1.6875 -0.875 1.34375C-0.65625 1 -0.1875 0.90625 0.15625 1.125ZM16.6562 2.375L15.1562 3.375C14.8125 3.625 14.3438 3.53125 14.125 3.1875C13.875 2.84375 13.9688 2.375 14.3125 2.125L15.8125 1.125C16.1562 0.90625 16.625 1 16.875 1.34375C17.0938 1.6875 17 2.15625 16.6562 2.375ZM-1.25 6H0.75C1.15625 6 1.5 6.34375 1.5 6.75C1.5 7.1875 1.15625 7.5 0.75 7.5H-1.25C-1.6875 7.5 -2 7.1875 -2 6.75C-2 6.34375 -1.6875 6 -1.25 6ZM15.25 6H17.25C17.6562 6 18 6.34375 18 6.75C18 7.1875 17.6562 7.5 17.25 7.5H15.25C14.8125 7.5 14.5 7.1875 14.5 6.75C14.5 6.34375 14.8125 6 15.25 6ZM8 1C10.75 1 13 3.25 13 6V11H3V6C3 3.25 5.21875 1 8 1ZM5.5 6C5.5 4.625 6.59375 3.5 8 3.5C8.25 3.5 8.5 3.28125 8.5 3C8.5 2.75 8.25 2.5 8 2.5C6.0625 2.5 4.5 4.09375 4.5 6C4.5 6.28125 4.71875 6.5 5 6.5C5.25 6.5 5.5 6.28125 5.5 6ZM1 13C1 12.4688 1.4375 12 2 12H14C14.5312 12 15 12.4688 15 13V14C15 14.5625 14.5312 15 14 15H2C1.4375 15 1 14.5625 1 14V13Z" fill="black"/>
</g>
<defs>
<clipPath id="clip0_4_1240">
<rect width="16" height="16" fill="white"/>
</clipPath>
</defs>
</svg>
