<svg width="16" height="16" viewBox="0 0 16 16" fill="none" xmlns="http://www.w3.org/2000/svg">
<path d="M0.966191 1.74074L3.76472 3.9146C4.88913 3.06505 6.2884 2.3904 8.01249 2.3904C10.0114 2.3904 11.6356 3.31492 12.81 4.41434C13.9844 5.48878 14.759 6.7881 15.1338 7.68762C15.2087 7.88752 15.2087 8.1124 15.1338 8.3123C14.8089 9.11188 14.1343 10.2613 13.1348 11.2607L15.7584 13.3347C16.0333 13.5346 16.0833 13.9094 15.8584 14.1592C15.6585 14.4341 15.2837 14.4841 15.0338 14.2592L0.241571 2.66526C-0.0332847 2.46536 -0.0832584 2.09056 0.141624 1.84069C0.341519 1.56584 0.716322 1.51586 0.966191 1.74074ZM5.58877 5.33886L7.83759 7.11293C7.93753 6.88804 8.01249 6.66316 8.01249 6.41329C8.01249 6.2134 7.96252 6.06348 7.91255 5.88857C7.88756 5.76363 7.96252 5.58873 8.11244 5.61371C9.1369 5.6387 10.0364 6.33833 10.3113 7.38778C10.4612 7.93749 10.4112 8.4872 10.2113 8.96196L11.1608 9.71156C11.4357 9.21182 11.6106 8.61214 11.6106 7.98747C11.6106 6.0135 9.98646 4.38935 8.01249 4.38935C7.06299 4.38935 6.21344 4.76416 5.58877 5.33886ZM9.3368 11.3357L11.1608 12.7849C10.2363 13.2847 9.18688 13.5845 8.01249 13.5845C5.98856 13.5845 4.36441 12.685 3.19002 11.5856C2.01564 10.4862 1.24105 9.18684 0.866243 8.3123C0.791283 8.1124 0.791283 7.88752 0.866243 7.68762C1.11611 7.11293 1.5159 6.38831 2.0906 5.6387L4.43937 7.48773C4.41438 7.66264 4.41438 7.83755 4.41438 7.98747C4.41438 9.98642 6.01354 11.5856 8.01249 11.5856C8.46226 11.5856 8.91202 11.5106 9.3368 11.3357Z" fill="black"/>
</svg>
