<svg width="16" height="16" viewBox="0 0 16 16" fill="none" xmlns="http://www.w3.org/2000/svg">
<g clip-path="url(#clip0_4_1195)">
<path d="M4 1.5C4 0.6875 4.65625 0 5.5 0H10.5C11.3125 0 12 0.6875 12 1.5V16H9.5V13.5C9.5 12.6875 8.8125 12 8 12C7.15625 12 6.5 12.6875 6.5 13.5V16H4V1.5ZM-0.5 3H3V16H-0.5C-1.34375 16 -2 15.3438 -2 14.5V10H0.5C0.75 10 1 9.78125 1 9.5C1 9.25 0.75 9 0.5 9H-2V7H0.5C0.75 7 1 6.78125 1 6.5C1 6.25 0.75 6 0.5 6H-2V4.5C-2 3.6875 -1.34375 3 -0.5 3ZM16.5 3C17.3125 3 18 3.6875 18 4.5V6H15.5C15.2188 6 15 6.25 15 6.5C15 6.78125 15.2188 7 15.5 7H18V9H15.5C15.2188 9 15 9.25 15 9.5C15 9.78125 15.2188 10 15.5 10H18V14.5C18 15.3438 17.3125 16 16.5 16H13V3H16.5ZM7.75 2C7.46875 2 7.25 2.25 7.25 2.5V3.25H6.5C6.21875 3.25 6 3.5 6 3.75V4.25C6 4.53125 6.21875 4.75 6.5 4.75H7.25V5.5C7.25 5.78125 7.46875 6 7.75 6H8.25C8.5 6 8.75 5.78125 8.75 5.5V4.75H9.5C9.75 4.75 10 4.53125 10 4.25V3.75C10 3.5 9.75 3.25 9.5 3.25H8.75V2.5C8.75 2.25 8.5 2 8.25 2H7.75Z" fill="black"/>
</g>
<defs>
<clipPath id="clip0_4_1195">
<rect width="16" height="16" fill="white"/>
</clipPath>
</defs>
</svg>
