<svg width="16" height="16" viewBox="0 0 16 16" fill="none" xmlns="http://www.w3.org/2000/svg">
<g clip-path="url(#clip0_4_1135)">
<path d="M3.84183 4C2.71683 4 1.84183 3.125 1.84183 2C1.84183 0.90625 2.71683 0 3.84183 0C4.93558 0 5.84183 0.90625 5.84183 2C5.84183 3.125 4.93558 4 3.84183 4ZM3.12308 5H4.52933C4.81058 5 5.09183 5.0625 5.34183 5.15625C5.34183 5.28125 5.34183 5.40625 5.34183 5.5C5.34183 6.28125 5.65433 6.96875 6.21683 7.40625C5.09183 8 4.34183 9.15625 4.34183 10.5V11C4.34183 11.9062 4.71683 12.6875 5.34183 13.25V15C5.34183 15.2188 5.34183 15.375 5.40433 15.5625C5.12308 15.8438 4.74808 16 4.34183 16H3.34183C2.49808 16 1.84183 15.3438 1.84183 14.5V10.9062C0.998079 10.5938 0.435579 9.78125 0.498079 8.84375L0.623079 7.3125C0.748079 6 1.84183 5 3.12308 5ZM11.3418 16C10.9043 16 10.5293 15.8438 10.2481 15.5625C10.3106 15.375 10.3418 15.2188 10.3418 15V13.25C10.9356 12.6875 11.3418 11.9062 11.3418 11V10.5C11.3418 9.15625 10.5606 8 9.46683 7.40625C9.99808 6.96875 10.3418 6.28125 10.3418 5.5C10.3418 5.4375 10.3106 5.375 10.3106 5.28125C10.6231 5.125 10.9668 5 11.3418 5H12.3106C13.2168 5 13.9981 5.59375 14.2481 6.46875L15.4668 10.75C15.6543 11.375 15.1543 12 14.4981 12H13.8418V14.5C13.8418 15.3438 13.1543 16 12.3418 16H11.3418ZM11.8418 4C10.7168 4 9.84183 3.125 9.84183 2C9.84183 0.90625 10.7168 0 11.8418 0C12.9356 0 13.8418 0.90625 13.8418 2C13.8418 3.125 12.9356 4 11.8418 4ZM7.84183 7C6.99808 7 6.34183 6.34375 6.34183 5.5C6.34183 4.6875 6.99808 4 7.84183 4C8.65433 4 9.34183 4.6875 9.34183 5.5C9.34183 6.34375 8.65433 7 7.84183 7ZM7.84183 8C9.21683 8 10.3418 9.125 10.3418 10.5V11C10.3418 11.75 9.93558 12.4062 9.34183 12.75V15C9.34183 15.5625 8.87308 16 8.34183 16H7.34183C6.77933 16 6.34183 15.5625 6.34183 15V12.75C5.71683 12.4062 5.34183 11.75 5.34183 11V10.5C5.34183 9.125 6.43558 8 7.84183 8Z" fill="black"/>
</g>
<defs>
<clipPath id="clip0_4_1135">
<rect width="16" height="16" fill="white"/>
</clipPath>
</defs>
</svg>
