<svg width="16" height="16" viewBox="0 0 16 16" fill="none" xmlns="http://www.w3.org/2000/svg">
<path d="M6 11.5H13C13.25 11.5 13.5 11.2812 13.5 11V4H12C11.4375 4 11 3.5625 11 3V1.5H6C5.71875 1.5 5.5 1.75 5.5 2V11C5.5 11.2812 5.71875 11.5 6 11.5ZM13 13H6C4.875 13 4 12.125 4 11V2C4 0.90625 4.875 0 6 0H11.1562C11.6875 0 12.1875 0.21875 12.5625 0.59375L14.4062 2.4375C14.7812 2.8125 15 3.3125 15 3.84375V11C15 12.125 14.0938 13 13 13ZM1.75 3C2.15625 3 2.5 3.34375 2.5 3.75V11.75C2.5 13.2812 3.71875 14.5 5.25 14.5H11.25C11.6562 14.5 12 14.8438 12 15.25C12 15.6875 11.6562 16 11.25 16H5.25C2.875 16 1 14.125 1 11.75V3.75C1 3.34375 1.3125 3 1.75 3Z" fill="black"/>
</svg>
