<svg width="16" height="16" viewBox="0 0 16 16" fill="none" xmlns="http://www.w3.org/2000/svg">
<g clip-path="url(#clip0_4_1210)">
<path d="M1.5 7.99445V8.24445C1.5 8.68195 1.15625 8.99445 0.75 8.99445C0.3125 8.99445 0 8.68195 0 8.24445V7.99445C0 3.5882 3.5625 -0.0055542 8 -0.0055542C10.6562 -0.0055542 13 1.30695 14.4688 3.30695C14.7188 3.6507 14.625 4.11945 14.3125 4.36945C13.9688 4.61945 13.5 4.5257 13.25 4.18195C12.0625 2.55695 10.1562 1.49445 8 1.49445C4.40625 1.49445 1.5 4.43195 1.5 7.99445ZM15.8125 6.36945C15.9375 6.9007 16 7.43195 16 8.0257V8.2757C16 8.68195 15.6562 9.0257 15.25 9.0257C14.8125 9.0257 14.5 8.68195 14.5 8.2757V8.0257C14.5 7.55695 14.4375 7.0882 14.3438 6.6507C14.25 6.2757 14.5312 5.86945 14.9375 5.7757C15.3438 5.68195 15.7188 5.9632 15.8125 6.36945ZM6.9375 4.0257C6.53125 4.11945 6.125 3.86945 6 3.49445C5.90625 3.0882 6.15625 2.68195 6.53125 2.55695C7 2.43195 7.5 2.36945 8 2.36945C11.0938 2.36945 13.625 4.9007 13.625 7.99445C13.625 9.0257 13.5625 10.0569 13.5 10.8069C13.4688 11.2132 13.4375 11.5257 13.4062 11.7444C13.375 11.8694 13.375 11.9319 13.375 11.9944V12.0882C13.375 12.0882 13.375 12.0882 12.625 11.9944L13.375 12.0882C13.3125 12.4944 12.9375 12.8069 12.5312 12.7444C12.125 12.6819 11.8125 12.3382 11.875 11.9007V11.8382C11.875 11.7757 11.9062 11.6819 11.9062 11.5882C11.9375 11.3694 11.9688 11.0569 12 10.6819C12.0625 9.9632 12.125 8.99445 12.125 7.99445C12.125 5.7132 10.2812 3.86945 8 3.86945C7.625 3.86945 7.25 3.93195 6.9375 4.0257ZM4.59375 5.6507C4.125 6.30695 3.84375 7.11945 3.84375 7.99445C3.84375 9.05695 3.71875 10.0569 3.59375 10.7757C3.53125 11.1194 3.46875 11.4319 3.40625 11.6194C3.375 11.7444 3.375 11.8069 3.34375 11.8694C3.34375 11.9007 3.34375 11.9319 3.34375 11.9319L3.3125 11.9632C3.3125 11.9632 3.3125 11.9632 2.59375 11.7444L3.34375 11.9632C3.21875 12.3694 2.8125 12.5882 2.40625 12.4944C2 12.3694 1.78125 11.9632 1.875 11.5569V11.5257C1.90625 11.5257 1.90625 11.4944 1.90625 11.4944C1.90625 11.4319 1.9375 11.3694 1.96875 11.2757C2 11.0882 2.0625 10.8382 2.125 10.4944C2.25 9.8382 2.34375 8.9632 2.34375 7.99445C2.34375 6.80695 2.71875 5.68195 3.375 4.7757C3.59375 4.43195 4.0625 4.36945 4.40625 4.5882C4.75 4.8382 4.84375 5.30695 4.59375 5.6507ZM8 6.24445C7.03125 6.24445 6.25 7.05695 6.25 7.99445C6.25 8.4632 6.21875 8.86945 6.21875 9.2757C6.15625 10.2132 6.0625 11.0257 5.96875 11.6194C5.90625 12.0569 5.84375 12.3694 5.8125 12.5882C5.78125 12.7132 5.75 12.8069 5.75 12.8694C5.71875 12.9007 5.71875 12.9319 5.71875 12.9319V12.9632C5.71875 12.9632 5.71875 12.9632 5 12.7444L5.71875 12.9632C5.59375 13.3694 5.1875 13.5882 4.78125 13.4632C4.375 13.3694 4.15625 12.9319 4.25 12.5569L4.28125 12.5257C4.28125 12.5257 4.28125 12.5257 4.28125 12.4944C4.28125 12.4319 4.3125 12.3694 4.34375 12.2757C4.375 12.0882 4.4375 11.7757 4.5 11.4007C4.625 10.6194 4.71875 9.4632 4.71875 7.99445C4.71875 6.2132 6.1875 4.74445 7.96875 4.74445C9.78125 4.74445 11.2188 6.2132 11.2188 7.99445C11.2188 9.5257 11.1562 10.8069 11.0625 11.7132C11 12.1507 10.9688 12.4944 10.9375 12.7444C10.9062 12.8694 10.9062 12.9632 10.875 13.0257C10.875 13.0569 10.875 13.0882 10.875 13.1194V13.1507C10.875 13.1507 10.875 13.1507 10.125 12.9944L10.875 13.1507C10.8125 13.5569 10.4062 13.8069 10 13.7444C9.59375 13.6819 9.3125 13.2757 9.40625 12.8694C9.40625 12.8382 9.40625 12.8382 9.40625 12.8069C9.40625 12.7444 9.4375 12.6507 9.4375 12.5569C9.46875 12.3069 9.53125 11.9944 9.5625 11.5569C9.65625 10.7132 9.75 9.49445 9.75 7.99445C9.75 7.05695 8.9375 6.24445 8 6.24445ZM8.75 7.99445C8.75 10.5569 8.46875 12.4319 8.21875 13.6819C8.09375 14.2757 7.9375 14.7444 7.84375 15.0569C7.8125 15.2132 7.75 15.3382 7.71875 15.4319C7.71875 15.4632 7.6875 15.4944 7.6875 15.5257V15.5569H7.65625C7.65625 15.5569 7.65625 15.5569 7 15.2444L7.65625 15.5569C7.5 15.9319 7.0625 16.1194 6.6875 15.9319C6.3125 15.7757 6.125 15.3382 6.3125 14.9632L7.03125 11.5882C7.15625 10.6194 7.25 9.43195 7.25 7.99445C7.25 7.5882 7.5625 7.24445 8 7.24445C8.40625 7.24445 8.75 7.5882 8.75 7.99445ZM7.03125 11.5882L8 7.24445L7.03125 11.5882ZM7.03125 11.5882L6.3125 14.9632C6.3125 14.9319 6.3125 14.9007 6.34375 14.9007C6.34375 14.8382 6.375 14.7444 6.4375 14.5882C6.5 14.3382 6.625 13.9319 6.75 13.3694C6.84375 12.8694 6.96875 12.2757 7.03125 11.5882Z" fill="black"/>
</g>
<defs>
<clipPath id="clip0_4_1210">
<rect width="16" height="16" fill="white"/>
</clipPath>
</defs>
</svg>
