<svg width="16" height="16" viewBox="0 0 16 16" fill="none" xmlns="http://www.w3.org/2000/svg">
<g clip-path="url(#clip0_4_1851)">
<path d="M15.9958 8C15.9958 8.50073 15.5785 8.8902 15.1056 8.8902H14.2154L14.2432 13.3412C14.2432 13.4247 14.2432 13.5081 14.2432 13.5638V14.0089C14.2432 14.6487 13.7425 15.1216 13.1305 15.1216H12.6854C12.6297 15.1216 12.6019 15.1216 12.5741 15.1216C12.5463 15.1216 12.4906 15.1216 12.4628 15.1216H11.5726H10.905C10.2651 15.1216 9.79221 14.6487 9.79221 14.0089V13.3412V11.5608C9.79221 11.0879 9.37493 10.6706 8.90201 10.6706H7.12161C6.62087 10.6706 6.23141 11.0879 6.23141 11.5608V13.3412V14.0089C6.23141 14.6487 5.73067 15.1216 5.11866 15.1216H4.45101H3.5608C3.50517 15.1216 3.47735 15.1216 3.42171 15.1216C3.39389 15.1216 3.36607 15.1216 3.33825 15.1216H2.89315C2.25332 15.1216 1.7804 14.6487 1.7804 14.0089V10.8931C1.7804 10.8931 1.7804 10.8653 1.7804 10.8375V8.8902H0.890201C0.389463 8.8902 0 8.50073 0 8C0 7.74963 0.0834563 7.52708 0.278188 7.33234L7.3998 1.10094C7.59453 0.906206 7.81708 0.878387 8.01181 0.878387C8.20654 0.878387 8.42909 0.934025 8.596 1.07312L15.6898 7.33234C15.9123 7.52708 16.0236 7.74963 15.9958 8Z" fill="black"/>
</g>
<defs>
<clipPath id="clip0_4_1851">
<rect width="16" height="16" fill="white"/>
</clipPath>
</defs>
</svg>
