<svg width="16" height="16" viewBox="0 0 16 16" fill="none" xmlns="http://www.w3.org/2000/svg">
<g clip-path="url(#clip0_4_1941)">
<path d="M8 16C3.5625 16 0 12.4375 0 8C0 3.59375 3.5625 0 8 0C12.4062 0 16 3.59375 16 8C16 12.4375 12.4062 16 8 16ZM6.75 10.5C6.3125 10.5 6 10.8438 6 11.25C6 11.6875 6.3125 12 6.75 12H9.25C9.65625 12 10 11.6875 10 11.25C10 10.8438 9.65625 10.5 9.25 10.5H9V7.75C9 7.34375 8.65625 7 8.25 7H6.75C6.3125 7 6 7.34375 6 7.75C6 8.1875 6.3125 8.5 6.75 8.5H7.5V10.5H6.75ZM8 6C8.53125 6 9 5.5625 9 5C9 4.46875 8.53125 4 8 4C7.4375 4 7 4.46875 7 5C7 5.5625 7.4375 6 8 6Z" fill="black"/>
</g>
<defs>
<clipPath id="clip0_4_1941">
<rect width="16" height="16" fill="white"/>
</clipPath>
</defs>
</svg>
