<svg width="16" height="16" viewBox="0 0 16 16" fill="none" xmlns="http://www.w3.org/2000/svg">
<g clip-path="url(#clip0_4_1180)">
<path d="M8.00067 0.03125C8.12567 0.03125 8.28192 0.0625 8.40692 0.125L14.2819 2.625C14.9694 2.9375 15.5007 3.59375 15.5007 4.40625C15.4694 7.53125 14.1882 13.1875 8.81317 15.7812C8.28192 16.0312 7.68817 16.0312 7.15692 15.7812C1.78192 13.1875 0.50067 7.53125 0.50067 4.40625C0.46942 3.59375 1.00067 2.9375 1.68817 2.625L7.56317 0.125C7.68817 0.0625 7.84442 0.03125 8.00067 0.03125ZM8.00067 2.125V13.9375C12.3132 11.8438 13.4694 7.25 13.5007 4.46875L8.00067 2.125Z" fill="black"/>
</g>
<defs>
<clipPath id="clip0_4_1180">
<rect width="16" height="16" fill="white"/>
</clipPath>
</defs>
</svg>
