<svg width="16" height="16" viewBox="0 0 16 16" fill="none" xmlns="http://www.w3.org/2000/svg">
<path d="M4.375 11.35C4.125 11.75 4 12.2 4 12.675C3.75 12.75 3.475 12.8 3.2 12.8C1.875 12.8 0.8 11.725 0.8 10.4V3.19998C0.35 3.19998 0 2.84998 0 2.39998C0 1.97498 0.35 1.59998 0.8 1.59998H2.4H4H5.6C6.025 1.59998 6.4 1.97498 6.4 2.39998C6.4 2.84998 6.025 3.19998 5.6 3.19998V9.34998L4.375 11.35ZM2.4 3.19998V5.59998H4V3.19998H2.4ZM8.8 1.59998H12H12.8C13.225 1.59998 13.6 1.97498 13.6 2.39998C13.6 2.84998 13.225 3.19998 12.8 3.19998V6.97498L15.725 11.775C15.9 12.05 16 12.35 16 12.675C16 13.625 15.2 14.4 14.25 14.4H6.525C5.575 14.4 4.8 13.625 4.8 12.675C4.8 12.35 4.875 12.05 5.05 11.775L8 6.97498V3.19998C7.55 3.19998 7.2 2.84998 7.2 2.39998C7.2 1.97498 7.55 1.59998 8 1.59998H8.8ZM9.6 3.19998V7.19998C9.6 7.34998 9.55 7.49998 9.475 7.62498L8.25 9.59998H12.525L11.3 7.62498C11.225 7.49998 11.2 7.34998 11.2 7.19998V3.19998H9.6Z" fill="black"/>
</svg>
