<svg width="16" height="16" viewBox="0 0 16 16" fill="none" xmlns="http://www.w3.org/2000/svg">
<g clip-path="url(#clip0_4_1390)">
<path d="M7.11111 0.888916H8.88889C9.36111 0.888916 9.77778 1.30558 9.77778 1.7778V3.55558C9.77778 4.05558 9.36111 4.44447 8.88889 4.44447H7.11111C6.61111 4.44447 6.22222 4.05558 6.22222 3.55558V1.7778C6.22222 1.30558 6.61111 0.888916 7.11111 0.888916ZM1.77778 2.66669H5.33333V4.00003C5.33333 4.75003 5.91667 5.33336 6.66667 5.33336H9.33333C10.0556 5.33336 10.6667 4.75003 10.6667 4.00003V2.66669H14.2222C15.1944 2.66669 16 3.47225 16 4.44447V13.3334C16 14.3334 15.1944 15.1111 14.2222 15.1111H1.77778C0.777778 15.1111 0 14.3334 0 13.3334V4.44447C0 3.47225 0.777778 2.66669 1.77778 2.66669ZM4.88889 13.0556C4.88889 13.2222 5 13.3334 5.16667 13.3334H10.8056C10.9722 13.3334 11.1111 13.2222 11.1111 13.0556C11.1111 12.2222 10.4444 11.5556 9.61111 11.5556H6.36111C5.52778 11.5556 4.88889 12.2222 4.88889 13.0556ZM8 10.6667C8.61111 10.6667 9.19444 10.3334 9.52778 9.77781C9.83333 9.25003 9.83333 8.55558 9.52778 8.00003C9.19444 7.47225 8.61111 7.11114 8 7.11114C7.36111 7.11114 6.77778 7.47225 6.44444 8.00003C6.13889 8.55558 6.13889 9.25003 6.44444 9.77781C6.77778 10.3334 7.36111 10.6667 8 10.6667Z" fill="black"/>
</g>
<defs>
<clipPath id="clip0_4_1390">
<rect width="16" height="16" fill="white"/>
</clipPath>
</defs>
</svg>
