<svg width="16" height="16" viewBox="0 0 16 16" fill="none" xmlns="http://www.w3.org/2000/svg">
<path d="M1.1559 2.84684C1.1559 2.25752 1.47734 1.695 2.01309 1.37355C2.52204 1.07889 3.19172 1.07889 3.72746 1.37355C4.23641 1.695 4.58465 2.25752 4.58465 2.84684C4.58465 3.46294 4.23641 4.02547 3.72746 4.34692C3.19172 4.64157 2.52204 4.64157 2.01309 4.34692C1.47734 4.02547 1.1559 3.46294 1.1559 2.84684ZM0.111204 7.40064C0.218352 6.27559 1.1559 5.4184 2.25417 5.4184H3.45959C4.18284 5.4184 4.82573 5.79342 5.20075 6.35595C5.14717 6.38273 5.06681 6.4631 5.01324 6.51667L3.29887 8.23104C2.70955 8.82036 2.70955 9.75791 3.29887 10.3472L4.58465 11.633V13.5617C4.58465 14.2849 3.99533 14.8475 3.29887 14.8475H2.44168C1.71843 14.8475 1.1559 14.2849 1.1559 13.5617V10.4812C0.432649 10.2133 -0.0495185 9.51682 0.00405568 8.71321L0.111204 7.40064ZM11.4421 2.84684C11.4421 2.25752 11.7636 1.695 12.2993 1.37355C12.8083 1.07889 13.478 1.07889 14.0137 1.37355C14.5227 1.695 14.8709 2.25752 14.8709 2.84684C14.8709 3.46294 14.5227 4.02547 14.0137 4.34692C13.478 4.64157 12.8083 4.64157 12.2993 4.34692C11.7636 4.02547 11.4421 3.46294 11.4421 2.84684ZM10.9868 6.51667C10.9332 6.4631 10.8528 6.38273 10.7992 6.35595C11.1743 5.79342 11.8172 5.4184 12.5404 5.4184H13.7458C14.8709 5.4184 15.7816 6.27559 15.8888 7.40064L15.9959 8.71321C16.0495 9.51682 15.5673 10.2133 14.8709 10.4812V13.5617C14.8709 14.2849 14.2816 14.8475 13.5851 14.8475H12.7279C12.0047 14.8475 11.4421 14.2849 11.4421 13.5617V11.633L12.7011 10.3472C13.2904 9.75791 13.2904 8.82036 12.7011 8.23104L10.9868 6.51667ZM6.72761 7.56137V8.41855H9.29917V7.56137C9.29917 7.32028 9.43311 7.0792 9.67419 6.97205C9.91527 6.89169 10.2099 6.94526 10.3974 7.10599L12.1118 8.82036C12.3529 9.08823 12.3529 9.49004 12.1118 9.73112L10.3974 11.4455C10.2099 11.633 9.91527 11.6866 9.67419 11.6062C9.43311 11.4991 9.29917 11.258 9.29917 10.9901V10.1329H6.72761V10.9901C6.72761 11.258 6.56689 11.4991 6.32581 11.6062C6.08472 11.6866 5.79006 11.633 5.62934 11.4455L3.91497 9.73112C3.6471 9.49004 3.6471 9.08823 3.91497 8.84715L5.62934 7.13277C5.79006 6.94526 6.08472 6.89169 6.32581 6.97205C6.56689 7.0792 6.72761 7.32028 6.72761 7.58815V7.56137Z" fill="black"/>
</svg>
