<svg width="16" height="16" viewBox="0 0 16 16" fill="none" xmlns="http://www.w3.org/2000/svg">
<g clip-path="url(#clip0_4_1731)">
<path d="M2.00391 -0.0117188H6.50391C8.41016 -0.0117188 10.0039 1.58203 10.0039 3.48828C10.0039 5.14453 8.84766 6.55078 7.31641 6.89453L10.0039 9.58203L13.2852 6.30078C13.6602 5.89453 14.3164 5.89453 14.6914 6.30078C15.0977 6.67578 15.0977 7.33203 14.6914 7.70703L11.4102 10.9883L14.6914 14.3008C15.0977 14.6758 15.0977 15.332 14.6914 15.707C14.3164 16.1133 13.6602 16.1133 13.2852 15.707L10.0039 12.4258L6.69141 15.707C6.31641 16.1133 5.66016 16.1133 5.28516 15.707C4.87891 15.332 4.87891 14.6758 5.28516 14.3008L8.56641 10.9883L4.56641 6.98828H3.00391V8.98828C3.00391 9.55078 2.53516 9.98828 2.00391 9.98828C1.44141 9.98828 1.00391 9.55078 1.00391 8.98828V5.98828V0.988281C1.00391 0.457031 1.44141 -0.0117188 2.00391 -0.0117188ZM6.50391 4.98828C7.31641 4.98828 8.00391 4.33203 8.00391 3.48828C8.00391 2.67578 7.31641 1.98828 6.50391 1.98828H3.00391V4.98828H6.50391Z" fill="black"/>
</g>
<defs>
<clipPath id="clip0_4_1731">
<rect width="16" height="16" fill="white"/>
</clipPath>
</defs>
</svg>
