<svg width="16" height="16" viewBox="0 0 16 16" fill="none" xmlns="http://www.w3.org/2000/svg">
<g clip-path="url(#clip0_4_2151)">
<path d="M13.0039 6.48828C13.0039 7.92578 12.5352 9.26953 11.7539 10.332L15.6914 14.3008C16.0977 14.6758 16.0977 15.332 15.6914 15.707C15.3164 16.1133 14.6602 16.1133 14.2852 15.707L10.3164 11.7383C9.25391 12.5508 7.91016 12.9883 6.50391 12.9883C2.91016 12.9883 0.00390625 10.082 0.00390625 6.48828C0.00390625 2.92578 2.91016 -0.0117188 6.50391 -0.0117188C10.0664 -0.0117188 13.0039 2.92578 13.0039 6.48828ZM6.50391 10.9883C8.09766 10.9883 9.56641 10.1445 10.3789 8.73828C11.1914 7.36328 11.1914 5.64453 10.3789 4.23828C9.56641 2.86328 8.09766 1.98828 6.50391 1.98828C4.87891 1.98828 3.41016 2.86328 2.59766 4.23828C1.78516 5.64453 1.78516 7.36328 2.59766 8.73828C3.41016 10.1445 4.87891 10.9883 6.50391 10.9883Z" fill="black"/>
</g>
<defs>
<clipPath id="clip0_4_2151">
<rect width="16" height="16" fill="white"/>
</clipPath>
</defs>
</svg>
