<svg width="16" height="16" viewBox="0 0 16 16" fill="none" xmlns="http://www.w3.org/2000/svg">
<g clip-path="url(#clip0_4_1836)">
<path d="M6.81641 1.625L6.53516 2.71875C6.41016 3.25 6.06641 3.65625 5.62891 3.875L5.59766 3.90625C5.19141 4.15625 4.66016 4.28125 4.12891 4.125L3.03516 3.78125C2.81641 4.0625 2.59766 4.34375 2.41016 4.65625L2.28516 4.875C2.12891 5.1875 1.97266 5.5 1.84766 5.84375L2.69141 6.625C3.06641 7 3.25391 7.5 3.25391 8V8.03125C3.25391 8.53125 3.06641 9.03125 2.69141 9.40625L1.84766 10.1875C1.97266 10.5312 2.12891 10.8438 2.28516 11.1562L2.41016 11.375C2.59766 11.6875 2.81641 11.9688 3.03516 12.25L4.12891 11.9062C4.66016 11.75 5.19141 11.875 5.59766 12.125H5.62891C6.06641 12.375 6.41016 12.7812 6.53516 13.3125L6.81641 14.4062C7.19141 14.4688 7.59766 14.5 8.00391 14.5C8.37891 14.5 8.78516 14.4688 9.16016 14.4062L9.44141 13.3125C9.56641 12.7812 9.94141 12.375 10.3477 12.125H10.3789C10.7852 11.875 11.3164 11.75 11.8477 11.9062L12.9414 12.2188C13.1602 11.9688 13.3789 11.6562 13.5664 11.375L13.6914 11.1562C13.8477 10.8438 14.0039 10.5 14.1289 10.1875L13.3164 9.40625C12.9102 9.03125 12.7539 8.5 12.7539 8.03125V8C12.7539 7.5 12.9102 7 13.3164 6.625L14.1289 5.84375C14.0039 5.5 13.8477 5.1875 13.6914 4.875L13.5664 4.65625C13.3789 4.34375 13.1602 4.0625 12.9414 3.78125L11.8477 4.125C11.3164 4.25 10.7852 4.15625 10.3789 3.90625L10.3477 3.875C9.94141 3.65625 9.56641 3.25 9.44141 2.71875L9.16016 1.625C8.78516 1.5625 8.41016 1.5 8.00391 1.5C7.59766 1.5 7.19141 1.5625 6.81641 1.625ZM8.00391 0C8.53516 0 9.03516 0.0625 9.53516 0.15625C9.78516 0.21875 10.2227 0.34375 10.4727 0.78125C10.5352 0.90625 10.5664 1.03125 10.5977 1.15625L10.9102 2.375C10.9102 2.4375 10.9727 2.5 11.0977 2.59375C11.0977 2.59375 11.1289 2.59375 11.1289 2.625C11.2539 2.6875 11.3789 2.6875 11.4414 2.65625L12.6289 2.3125C12.7539 2.28125 12.8789 2.25 13.0039 2.25C13.5039 2.25 13.8477 2.5625 14.0039 2.75C14.3164 3.09375 14.5977 3.46875 14.8477 3.875V3.90625L14.9727 4.125L15.0039 4.15625C15.2227 4.5625 15.4102 4.96875 15.5664 5.4375C15.6289 5.65625 15.7227 6.125 15.4727 6.53125C15.4102 6.65625 15.3164 6.75 15.2227 6.84375L14.3477 7.71875C14.2852 7.75 14.2539 7.84375 14.2539 7.96875V8V8.03125C14.2539 8.1875 14.2852 8.28125 14.3477 8.3125L15.2227 9.15625C15.3164 9.25 15.4102 9.375 15.4727 9.46875C15.7539 9.90625 15.6602 10.3438 15.5664 10.5938C15.4102 11.0312 15.2227 11.4688 15.0039 11.875V11.9062L14.8477 12.125C14.5977 12.5312 14.3164 12.9375 14.0039 13.2812C13.8477 13.4688 13.5039 13.7812 13.0039 13.7812C12.8789 13.75 12.7539 13.75 12.6289 13.7188L11.4414 13.3438C11.3789 13.3438 11.2539 13.3438 11.1602 13.4062C11.1289 13.4375 11.0977 13.4375 11.0977 13.4375C10.9727 13.5 10.9102 13.5938 10.9102 13.6562L10.5977 14.875C10.5664 15 10.5352 15.125 10.4727 15.25C10.2227 15.6875 9.78516 15.8125 9.53516 15.875C9.03516 15.9688 8.53516 16 8.00391 16C7.47266 16 6.94141 15.9688 6.44141 15.875C6.19141 15.8125 5.75391 15.6875 5.50391 15.25C5.44141 15.125 5.41016 15 5.37891 14.875L5.09766 13.6562C5.06641 13.5938 5.00391 13.5 4.91016 13.4375C4.87891 13.4375 4.84766 13.4375 4.84766 13.4062C4.72266 13.3438 4.62891 13.3438 4.56641 13.3438L3.37891 13.7188C3.25391 13.75 3.09766 13.75 2.97266 13.7812C2.47266 13.7812 2.12891 13.4688 1.97266 13.2812C1.66016 12.9375 1.37891 12.5312 1.12891 12.125L1.00391 11.9062L0.972656 11.875C0.753906 11.4688 0.566406 11.0312 0.410156 10.5938C0.347656 10.3438 0.253906 9.90625 0.503906 9.5C0.566406 9.375 0.660156 9.28125 0.753906 9.1875L1.66016 8.3125C1.69141 8.28125 1.75391 8.1875 1.75391 8.0625V8.03125V7.96875C1.75391 7.84375 1.69141 7.75 1.66016 7.71875L0.753906 6.84375C0.660156 6.75 0.566406 6.65625 0.503906 6.53125C0.253906 6.125 0.347656 5.6875 0.410156 5.4375C0.566406 5 0.753906 4.5625 1.00391 4.15625V4.125L1.12891 3.90625C1.37891 3.5 1.66016 3.09375 1.97266 2.75C2.12891 2.5625 2.47266 2.25 2.97266 2.25C3.09766 2.25 3.25391 2.28125 3.37891 2.3125L4.53516 2.65625C4.62891 2.6875 4.72266 2.6875 4.84766 2.625C4.84766 2.59375 4.87891 2.59375 4.87891 2.59375C5.00391 2.5 5.06641 2.4375 5.06641 2.375L5.37891 1.15625C5.41016 1.03125 5.44141 0.90625 5.50391 0.78125C5.75391 0.34375 6.19141 0.21875 6.44141 0.15625C6.94141 0.0625 7.47266 0 8.00391 0ZM6.50391 8C6.50391 8.5625 6.78516 9.03125 7.25391 9.3125C7.69141 9.59375 8.28516 9.59375 8.75391 9.3125C9.19141 9.03125 9.50391 8.5625 9.50391 8C9.50391 7.46875 9.19141 7 8.75391 6.71875C8.28516 6.4375 7.69141 6.4375 7.25391 6.71875C6.78516 7 6.50391 7.46875 6.50391 8ZM11.0039 8C11.0039 9.09375 10.4102 10.0625 9.50391 10.625C8.56641 11.1562 7.41016 11.1562 6.50391 10.625C5.56641 10.0625 5.00391 9.09375 5.00391 8C5.00391 6.9375 5.56641 5.96875 6.50391 5.40625C7.41016 4.875 8.56641 4.875 9.50391 5.40625C10.4102 5.96875 11.0039 6.9375 11.0039 8Z" fill="black"/>
</g>
<defs>
<clipPath id="clip0_4_1836">
<rect width="16" height="16" fill="white"/>
</clipPath>
</defs>
</svg>
