<svg width="16" height="16" viewBox="0 0 16 16" fill="none" xmlns="http://www.w3.org/2000/svg">
<g clip-path="url(#clip0_4_1480)">
<path d="M7.00764 0H10.0076C10.3826 0 10.7264 0.21875 10.8826 0.5625C11.0701 0.90625 11.0076 1.3125 10.7889 1.625L9.00764 4H10.0076C10.5389 4 11.0076 4.46875 11.0076 5C11.0076 5.5625 10.5389 6 10.0076 6H7.00764C6.60139 6 6.25764 5.8125 6.10139 5.46875C5.94514 5.125 5.97639 4.71875 6.19514 4.40625L8.00764 2H7.00764C6.44514 2 6.00764 1.5625 6.00764 1C6.00764 0.46875 6.44514 0 7.00764 0ZM11.0076 7H14.0076C14.3826 7 14.7264 7.21875 14.8826 7.5625C15.0701 7.90625 15.0076 8.3125 14.7889 8.625L13.0076 11H14.0076C14.5389 11 15.0076 11.4688 15.0076 12C15.0076 12.5625 14.5389 13 14.0076 13H11.0076C10.6014 13 10.2576 12.8125 10.1014 12.4688C9.94514 12.125 9.97639 11.7188 10.1951 11.4062L12.0076 9H11.0076C10.4451 9 10.0076 8.5625 10.0076 8C10.0076 7.46875 10.4451 7 11.0076 7ZM2.00764 8H7.00764C7.38264 8 7.72639 8.25 7.91389 8.59375C8.07014 8.9375 8.00764 9.34375 7.75764 9.65625L4.13264 14H7.00764C7.53889 14 8.00764 14.4688 8.00764 15C8.00764 15.5625 7.53889 16 7.00764 16H2.00764C1.60139 16 1.25764 15.7812 1.10139 15.4375C0.913891 15.0938 0.976391 14.6562 1.22639 14.375L4.85139 10H2.00764C1.44514 10 1.00764 9.5625 1.00764 9C1.00764 8.46875 1.44514 8 2.00764 8Z" fill="black"/>
</g>
<defs>
<clipPath id="clip0_4_1480">
<rect width="16" height="16" fill="white"/>
</clipPath>
</defs>
</svg>
