<svg width="16" height="16" viewBox="0 0 16 16" fill="none" xmlns="http://www.w3.org/2000/svg">
<path d="M7.29689 1.29688C7.67189 0.890625 8.32814 0.890625 8.70314 1.29688L12.7031 5.29688C12.9844 5.57812 13.0781 6.01562 12.9219 6.39062C12.7656 6.76562 12.4219 7.01562 12.0156 7.01562H4.01564C3.60939 7.01562 3.23439 6.76562 3.07814 6.39062C2.92189 6.01562 3.01564 5.57812 3.29689 5.29688L7.29689 1.29688ZM7.29689 14.7031L3.29689 10.7031C3.01564 10.4219 2.92189 9.98438 3.07814 9.60938C3.23439 9.23438 3.60939 8.98438 4.01564 8.98438H12.0156C12.3906 8.98438 12.7656 9.23438 12.9219 9.60938C13.0781 9.98438 12.9844 10.4219 12.7031 10.7031L8.70314 14.7031C8.32814 15.1094 7.67189 15.1094 7.29689 14.7031Z" fill="black"/>
</svg>
