<svg width="16" height="16" viewBox="0 0 16 16" fill="none" xmlns="http://www.w3.org/2000/svg">
<path d="M8 16C4.125 16 1 14.9062 1 13.5V2.5C1 1.125 4.125 0 8 0C11.8438 0 15 1.125 15 2.5V13.5C15 14.9062 11.8438 16 8 16ZM13.5 2.71875L13.4688 2.6875C13.3125 2.5625 12.9688 2.34375 12.4375 2.15625C11.375 1.78125 9.78125 1.5 8 1.5C6.1875 1.5 4.59375 1.78125 3.53125 2.15625C3 2.34375 2.65625 2.5625 2.5 2.6875V2.71875V5.46875C2.90625 5.6875 3.46875 5.90625 4.1875 6.09375C5.25 6.34375 6.5625 6.5 8 6.5C9.40625 6.5 10.7188 6.34375 11.7812 6.09375C12.5 5.90625 13.0625 5.6875 13.5 5.46875V2.71875ZM13.5 7.125C13.0625 7.28125 12.625 7.4375 12.125 7.5625C10.9375 7.84375 9.5 8 8 8C6.46875 8 5.03125 7.84375 3.84375 7.5625C3.34375 7.4375 2.90625 7.28125 2.5 7.125V9.46875C2.90625 9.6875 3.46875 9.90625 4.1875 10.0938C5.25 10.3438 6.5625 10.5 8 10.5C9.40625 10.5 10.7188 10.3438 11.7812 10.0938C12.5 9.90625 13.0625 9.6875 13.5 9.46875V7.125ZM2.5 13.3438C2.65625 13.4688 3 13.6875 3.53125 13.875C4.59375 14.25 6.1875 14.5 7.96875 14.5C9.78125 14.5 11.375 14.25 12.4375 13.875C12.9688 13.6875 13.3125 13.4688 13.4688 13.3438L13.5 13.3125V11.125C13.0625 11.2812 12.625 11.4375 12.125 11.5625C10.9375 11.8438 9.5 12 7.96875 12C6.46875 12 5.03125 11.8438 3.84375 11.5625C3.34375 11.4375 2.90625 11.2812 2.46875 11.125V13.3125L2.5 13.3438ZM13.5625 13.25L13.5312 13.2812C13.5625 13.25 13.5625 13.25 13.5625 13.25ZM2.4375 13.2812C2.4375 13.25 2.40625 13.25 2.40625 13.25L2.4375 13.2812ZM2.4375 2.75C2.40625 2.78125 2.40625 2.78125 2.40625 2.78125L2.4375 2.75ZM13.5625 2.78125C13.5625 2.78125 13.5625 2.78125 13.5312 2.75L13.5625 2.78125Z" fill="black"/>
</svg>
