<svg width="16" height="16" viewBox="0 0 16 16" fill="none" xmlns="http://www.w3.org/2000/svg">
<path d="M8 1C5.21875 1 3 3.25 3 6V6.5C3 6.78125 2.75 7 2.5 7C2.21875 7 2 6.78125 2 6.5V6C2 2.6875 4.6875 0 8 0C11.3125 0 14 2.6875 14 6V6.5C14 8.4375 12.4062 10 10.5 10H8.5H8H7.5C6.9375 10 6.5 9.5625 6.5 9C6.5 8.46875 6.9375 8 7.5 8H8.5C9.03125 8 9.5 8.46875 9.5 9H10.5C11.875 9 13 7.90625 13 6.5V6C13 3.25 10.75 1 8 1ZM4 6C4 3.8125 5.78125 2 8 2C10.1875 2 12 3.8125 12 6C12 6.4375 11.9062 6.875 11.7812 7.25C11.5312 7.71875 11.0312 8 10.5 8H10.2188C9.875 7.40625 9.21875 7 8.5 7H7.5C6.375 7 5.5 7.90625 5.5 9C5.5 9.0625 5.5 9.09375 5.5 9.125C4.5625 8.40625 4 7.28125 4 6ZM8 11H8.5H10.5H10.7812C13.0938 11 15 12.9062 15 15.2188C15 15.6562 14.625 16 14.1875 16H1.78125C1.34375 16 1 15.6562 1 15.2188C1 12.9062 2.875 11 5.1875 11H7.5H8Z" fill="black"/>
</svg>
