<svg width="16" height="16" viewBox="0 0 16 16" fill="none" xmlns="http://www.w3.org/2000/svg">
<g clip-path="url(#clip0_4_1225)">
<path d="M6 0H10C10.5312 0 11 0.46875 11 1V2C11 2.03125 11 2.03125 11 2.03125C12.1875 2.09375 13.25 2.875 13.6562 4.03125L14.75 7.15625C15.4688 7.46875 16 8.1875 16 9V13.5V15C16 15.5625 15.5312 16 15 16H14C13.4375 16 13 15.5625 13 15V13.5H3V15C3 15.5625 2.53125 16 2 16H1C0.4375 16 0 15.5625 0 15V13.5V9C0 8.1875 0.5 7.46875 1.21875 7.15625L2.3125 4.03125C2.71875 2.875 3.78125 2.09375 5 2.03125C5 2.03125 5 2.03125 5 2V1C5 0.46875 5.4375 0 6 0ZM5.15625 4C4.71875 4 4.34375 4.28125 4.21875 4.6875L3.40625 7H12.5625L11.75 4.6875C11.625 4.28125 11.25 4 10.8125 4H5.15625ZM3 11C3.53125 11 4 10.5625 4 10C4 9.46875 3.53125 9 3 9C2.4375 9 2 9.46875 2 10C2 10.5625 2.4375 11 3 11ZM14 10C14 9.46875 13.5312 9 13 9C12.4375 9 12 9.46875 12 10C12 10.5625 12.4375 11 13 11C13.5312 11 14 10.5625 14 10Z" fill="black"/>
</g>
<defs>
<clipPath id="clip0_4_1225">
<rect width="16" height="16" fill="white"/>
</clipPath>
</defs>
</svg>
