<svg width="16" height="16" viewBox="0 0 16 16" fill="none" xmlns="http://www.w3.org/2000/svg">
<g clip-path="url(#clip0_4_1120)">
<path d="M5.5 2.25V3.5H10.5V2.25C10.5 2.125 10.375 2 10.25 2H5.75C5.59375 2 5.5 2.125 5.5 2.25ZM4 3.5V2.25C4 1.3125 4.78125 0.5 5.75 0.5H10.25C11.1875 0.5 12 1.3125 12 2.25V3.5V4.5V15.5H4V4.5V3.5ZM2 3.5H3V15.5H2C0.875 15.5 0 14.625 0 13.5V5.5C0 4.40625 0.875 3.5 2 3.5ZM14 15.5H13V3.5H14C15.0938 3.5 16 4.40625 16 5.5V13.5C16 14.625 15.0938 15.5 14 15.5Z" fill="black"/>
</g>
<defs>
<clipPath id="clip0_4_1120">
<rect width="16" height="16" fill="white"/>
</clipPath>
</defs>
</svg>
