<svg width="16" height="16" viewBox="0 0 16 16" fill="none" xmlns="http://www.w3.org/2000/svg">
<path d="M9.59375 1.08871C9.9375 0.93246 10.375 0.99496 10.6562 1.27621L15.6562 5.77621C15.875 5.96371 16 6.21371 16 6.49496C16 6.80746 15.875 7.05746 15.6562 7.24496L10.6562 11.745C10.375 12.0262 9.9375 12.0887 9.59375 11.9325C9.21875 11.7762 9 11.4012 9 10.995V8.99496H6C4.34375 8.99496 3 10.3387 3 11.995C3 12.9637 3.375 13.495 3.6875 13.7762C3.84375 13.9325 4 14.1512 4 14.4012C4 14.745 3.71875 14.995 3.375 14.995C3.28125 14.995 3.1875 14.995 3.125 14.9637C2.53125 14.62 0 13.0575 0 9.49496C0 6.46371 2.4375 3.99496 5.5 3.99496H9V1.99496C9 1.61996 9.21875 1.24496 9.59375 1.08871Z" fill="black"/>
</svg>
