<svg width="16" height="16" viewBox="0 0 16 16" fill="none" xmlns="http://www.w3.org/2000/svg">
<path d="M4 3.95703V2.17578C4 1.73828 4.25 1.36328 4.625 1.23828L7.625 0.113281C7.875 0.0195312 8.125 0.0195312 8.34375 0.113281L11.3438 1.23828C11.7188 1.36328 12 1.73828 12 2.17578V3.95703H11.9688C12 4.05078 12 4.14453 12 4.20703V5.45703C12 7.67578 10.1875 9.45703 8 9.45703C5.78125 9.45703 4 7.67578 4 5.45703V4.20703C4 4.14453 4 4.05078 4 3.95703ZM5.5 5.45703C5.5 6.86328 6.59375 7.95703 8 7.95703C9.375 7.95703 10.5 6.86328 10.5 5.45703V4.95703H5.5V5.45703ZM4.46875 10.207C4.8125 10.1133 5.15625 10.2383 5.40625 10.4883L7.625 12.832C7.8125 13.0508 8.15625 13.0508 8.34375 12.832L10.5625 10.4883C10.8125 10.2383 11.1562 10.1133 11.5 10.207C13.5312 10.8633 15 12.7695 15 15.0195C15 15.5508 14.5625 15.957 14.0312 15.957H1.9375C1.40625 15.957 1 15.5508 1 15.0195C1 12.7695 2.46875 10.8633 4.46875 10.207ZM7.5 1.45703V1.95703H7C6.84375 1.95703 6.75 2.08203 6.75 2.20703V2.70703C6.75 2.86328 6.84375 2.95703 7 2.95703H7.5V3.45703C7.5 3.61328 7.59375 3.70703 7.75 3.70703H8.25C8.375 3.70703 8.5 3.61328 8.5 3.45703V2.95703H9C9.125 2.95703 9.25 2.86328 9.25 2.70703V2.20703C9.25 2.08203 9.125 1.95703 9 1.95703H8.5V1.45703C8.5 1.33203 8.375 1.20703 8.25 1.20703H7.75C7.59375 1.20703 7.5 1.33203 7.5 1.45703Z" fill="black"/>
</svg>
