<svg width="16" height="16" viewBox="0 0 16 16" fill="none" xmlns="http://www.w3.org/2000/svg">
<path d="M5.74712 1.43185C6.90167 1.43185 7.97926 2.07327 8.56936 3.07389C9.15947 4.10016 9.15947 5.35734 8.56936 6.35795C7.97926 7.38422 6.90167 7.99999 5.74712 7.99999C4.56691 7.99999 3.48932 7.38422 2.89922 6.35795C2.30911 5.35734 2.30911 4.10016 2.89922 3.07389C3.48932 2.07327 4.56691 1.43185 5.74712 1.43185ZM4.56691 9.23151H6.90167C7.20955 9.23151 7.51743 9.28283 7.79966 9.33414C7.74834 9.79596 7.97926 10.2321 8.36411 10.4887C7.92794 10.7453 7.67137 11.2841 7.85097 11.8485C7.9536 12.182 8.08188 12.4899 8.26148 12.7978C8.44108 13.1313 8.64633 13.4136 8.87724 13.6445C9.28775 14.0806 9.90351 14.132 10.3653 13.8754V13.901C10.3653 14.132 10.4166 14.3885 10.5449 14.5681H0.744046C0.333538 14.5681 0 14.2346 0 13.8241C0 11.2841 2.02688 9.23151 4.56691 9.23151ZM11.1864 7.05069C11.1864 6.87109 11.289 6.69149 11.4686 6.66584C11.7251 6.58887 12.0074 6.56321 12.3153 6.56321C12.5975 6.56321 12.8797 6.58887 13.1363 6.66584C13.3159 6.69149 13.4441 6.87109 13.4441 7.05069V7.82039C13.6237 7.92302 13.829 8.02564 14.0086 8.15393L14.65 7.79473C14.804 7.69211 14.9836 7.71776 15.1118 7.84605C15.3171 8.0513 15.4967 8.28221 15.625 8.53878C15.7789 8.79535 15.9072 9.07757 15.9842 9.33414C16.0355 9.51374 15.9585 9.69333 15.8046 9.79596L15.1632 10.1552C15.1632 10.2578 15.1632 10.3604 15.1632 10.463C15.1632 10.5657 15.1632 10.6683 15.1632 10.7966L15.8046 11.1558C15.9585 11.2327 16.0355 11.4123 15.9842 11.5919C15.9072 11.8742 15.7789 12.1307 15.625 12.3873C15.4967 12.6439 15.3171 12.8748 15.1118 13.08C14.9836 13.2083 14.804 13.234 14.65 13.157L14.0086 12.7721C13.829 12.9261 13.6494 13.0287 13.4441 13.1057V13.901C13.4441 14.0806 13.3159 14.2346 13.1363 14.2859C12.8797 14.3372 12.5975 14.3629 12.3153 14.3629C12.0074 14.3629 11.7251 14.3372 11.4686 14.2859C11.289 14.2346 11.1864 14.0806 11.1864 13.901V13.1057C10.9811 13.0287 10.7758 12.9261 10.5962 12.7721L9.95483 13.157C9.80089 13.234 9.62129 13.2083 9.493 13.08C9.28775 12.8748 9.13381 12.6439 8.97987 12.3873C8.82593 12.1307 8.69765 11.8742 8.62068 11.5919C8.56936 11.4123 8.64633 11.2327 8.80027 11.1558L9.44169 10.7966C9.44169 10.6683 9.44169 10.5657 9.44169 10.463C9.44169 10.3604 9.44169 10.2578 9.44169 10.1552L8.80027 9.7703C8.64633 9.69333 8.56936 9.51374 8.62068 9.33414C8.69765 9.07757 8.82593 8.79535 8.97987 8.53878C9.10815 8.28221 9.28775 8.0513 9.493 7.84605C9.62129 7.71776 9.80089 7.69211 9.95483 7.79473L10.5962 8.15393C10.7758 8.02564 10.9811 7.92302 11.1864 7.82039V7.05069ZM13.5468 10.463C13.5468 10.0269 13.3159 9.59071 12.931 9.3598C12.5462 9.12889 12.0587 9.12889 11.6738 9.3598C11.289 9.59071 11.0581 10.0269 11.0837 10.463C11.0581 10.9249 11.289 11.361 11.6738 11.5919C12.0587 11.8228 12.5462 11.8228 12.931 11.5919C13.3159 11.361 13.5468 10.9249 13.5468 10.463Z" fill="black"/>
</svg>
