<svg width="16" height="16" viewBox="0 0 16 16" fill="none" xmlns="http://www.w3.org/2000/svg">
<path d="M3.6 1.60001C4.3 1.60001 4.95 2.00001 5.325 2.60001C5.675 3.22501 5.675 4.00001 5.325 4.60001C4.95 5.22501 4.3 5.60001 3.6 5.60001C2.875 5.60001 2.225 5.22501 1.85 4.60001C1.5 4.00001 1.5 3.22501 1.85 2.60001C2.225 2.00001 2.875 1.60001 3.6 1.60001ZM12.8 1.60001C13.5 1.60001 14.15 2.00001 14.525 2.60001C14.875 3.22501 14.875 4.00001 14.525 4.60001C14.15 5.22501 13.5 5.60001 12.8 5.60001C12.075 5.60001 11.425 5.22501 11.05 4.60001C10.7 4.00001 10.7 3.22501 11.05 2.60001C11.425 2.00001 12.075 1.60001 12.8 1.60001ZM0 9.07501C0 7.60001 1.175 6.40001 2.65 6.40001H3.725C4.125 6.40001 4.5 6.50001 4.85 6.65001C4.8 6.82501 4.8 7.02501 4.8 7.20001C4.8 8.17501 5.2 9.02501 5.875 9.60001C5.875 9.60001 5.875 9.60001 5.85 9.60001H0.525C0.225 9.60001 0 9.37501 0 9.07501ZM10.125 9.60001H10.1C10.775 9.02501 11.175 8.17501 11.175 7.20001C11.175 7.02501 11.175 6.82501 11.15 6.65001C11.475 6.50001 11.85 6.40001 12.25 6.40001H13.325C14.8 6.40001 16 7.60001 16 9.07501C16 9.37501 15.75 9.60001 15.45 9.60001H10.125ZM5.6 7.20001C5.6 6.35001 6.05 5.57501 6.8 5.12501C7.525 4.70001 8.45 4.70001 9.2 5.12501C9.925 5.57501 10.4 6.35001 10.4 7.20001C10.4 8.07501 9.925 8.85001 9.2 9.30001C8.45 9.72501 7.525 9.72501 6.8 9.30001C6.05 8.85001 5.6 8.07501 5.6 7.20001ZM3.2 13.75C3.2 11.9 4.675 10.4 6.525 10.4H9.45C11.3 10.4 12.8 11.9 12.8 13.75C12.8 14.1 12.5 14.4 12.125 14.4H3.85C3.5 14.4 3.2 14.125 3.2 13.75Z" fill="black"/>
</svg>
