<svg width="16" height="16" viewBox="0 0 16 16" fill="none" xmlns="http://www.w3.org/2000/svg">
<path d="M8 8C6.5625 8 5.25 7.25 4.53125 6C3.8125 4.78125 3.8125 3.25 4.53125 2C5.25 0.78125 6.5625 0 8 0C9.40625 0 10.7188 0.78125 11.4375 2C12.1562 3.25 12.1562 4.78125 11.4375 6C10.7188 7.25 9.40625 8 8 8ZM5 9.75V11.5938C4.25 11.8125 3.75 12.4688 3.75 13.25C3.75 14.2188 4.53125 15 5.5 15C6.4375 15 7.25 14.2188 7.25 13.25C7.25 12.4688 6.71875 11.8125 6 11.5938V9.53125C6.1875 9.53125 6.375 9.5 6.5625 9.5H9.40625C9.59375 9.5 9.8125 9.53125 10 9.53125V11.3125C9.125 11.5625 8.5 12.3438 8.5 13.25V14.5C8.5 14.7812 8.71875 15 9 15H9.5C9.75 15 10 14.7812 10 14.5C10 14.25 9.75 14 9.5 14V13.25C9.5 12.7188 9.9375 12.25 10.5 12.25C11.0312 12.25 11.5 12.7188 11.5 13.25V14C11.2188 14 11 14.25 11 14.5C11 14.7812 11.2188 15 11.5 15H12C12.25 15 12.5 14.7812 12.5 14.5V13.25C12.5 12.3438 11.8438 11.5625 11 11.3125V9.75C13.3125 10.4062 15 12.5625 15 15.0938C15 15.5938 14.5625 16 14.0625 16H1.90625C1.40625 16 1 15.5938 1 15.0938C1 12.5625 2.6875 10.4062 5 9.75ZM5.5 14C5.0625 14 4.75 13.6875 4.75 13.25C4.75 12.8438 5.0625 12.5 5.5 12.5C5.90625 12.5 6.25 12.8438 6.25 13.25C6.25 13.6875 5.90625 14 5.5 14Z" fill="black"/>
</svg>
