<svg width="16" height="16" viewBox="0 0 16 16" fill="none" xmlns="http://www.w3.org/2000/svg">
<path d="M8.01562 1C8.45312 1 8.85938 1.25 9.07812 1.625L15.8281 13.125C16.0469 13.5312 16.0469 14 15.8281 14.375C15.6094 14.7812 15.2031 15 14.7656 15H1.26562C0.796875 15 0.390625 14.7812 0.171875 14.375C-0.046875 14 -0.046875 13.5312 0.171875 13.125L6.92188 1.625C7.14062 1.25 7.54688 1 8.01562 1ZM8.01562 5C7.57812 5 7.26562 5.34375 7.26562 5.75V9.25C7.26562 9.6875 7.57812 10 8.01562 10C8.42188 10 8.76562 9.6875 8.76562 9.25V5.75C8.76562 5.34375 8.42188 5 8.01562 5ZM9.01562 12C9.01562 11.4688 8.54688 11 8.01562 11C7.45312 11 7.01562 11.4688 7.01562 12C7.01562 12.5625 7.45312 13 8.01562 13C8.54688 13 9.01562 12.5625 9.01562 12Z" fill="black"/>
</svg>
