<svg width="12" height="12" viewBox="0 0 12 12" fill="none" xmlns="http://www.w3.org/2000/svg">
<path d="M6.01172 0.75C6.33984 0.75 6.64453 0.9375 6.80859 1.21875L11.8711 9.84375C12.0352 10.1484 12.0352 10.5 11.8711 10.7812C11.707 11.0859 11.4023 11.25 11.0742 11.25H0.949219C0.597656 11.25 0.292969 11.0859 0.128906 10.7812C-0.0351562 10.5 -0.0351562 10.1484 0.128906 9.84375L5.19141 1.21875C5.35547 0.9375 5.66016 0.75 6.01172 0.75ZM6.01172 3.75C5.68359 3.75 5.44922 4.00781 5.44922 4.3125V6.9375C5.44922 7.26562 5.68359 7.5 6.01172 7.5C6.31641 7.5 6.57422 7.26562 6.57422 6.9375V4.3125C6.57422 4.00781 6.31641 3.75 6.01172 3.75ZM6.76172 9C6.76172 8.60156 6.41016 8.25 6.01172 8.25C5.58984 8.25 5.26172 8.60156 5.26172 9C5.26172 9.42188 5.58984 9.75 6.01172 9.75C6.41016 9.75 6.76172 9.42188 6.76172 9Z" fill="#930F0F"/>
</svg>
